<?xml version="1.0" standalone="no"?>
<!DOCTYPE svg PUBLIC "-//W3C//DTD SVG 20010904//EN"
 "http://www.w3.org/TR/2001/REC-SVG-20010904/DTD/svg10.dtd">
<svg version="1.0" xmlns="http://www.w3.org/2000/svg"
 width="64.000000pt" height="64.000000pt" viewBox="0 0 64.000000 64.000000"
 preserveAspectRatio="xMidYMid meet">

<g transform="translate(0.000000,64.000000) scale(0.100000,-0.100000)"
fill="#000000" fill-rule="nonzero" stroke="none">
<path d="M274 580 c-195 -51 -254 -125 -221 -278 21 -94 63 -187 99 -217 48
-41 101 -50 186 -32 94 21 187 63 217 99 41 48 50 101 32 186 -21 94 -63 187
-99 217 -29 25 -87 45 -123 44 -11 0 -52 -9 -91 -19z m98 -106 c9 -19 17 -24
34 -20 52 13 77 -34 29 -56 -26 -12 -29 -20 -16 -52 5 -14 18 -20 42 -20 27
-1 35 -5 37 -23 2 -16 -4 -26 -22 -34 -20 -10 -24 -17 -20 -38 10 -48 -47 -67
-59 -20 -5 20 -32 25 -56 10 -8 -5 -15 -25 -15 -43 -1 -26 -5 -34 -23 -36 -16
-2 -26 4 -34 22 -10 20 -18 25 -42 23 -39 -3 -61 28 -33 48 10 8 24 16 30 18
8 3 8 12 1 32 -8 24 -16 29 -45 29 -28 1 -36 5 -38 23 -2 16 4 26 22 34 20 10
25 18 23 42 -3 39 28 61 48 33 8 -10 16 -23 18 -29 1 -5 16 -7 36 -2 29 6 32
9 26 36 -4 16 -4 33 0 39 12 19 45 10 57 -16z"/>
<path d="M303 350 c-26 -11 -29 -28 -10 -54 10 -14 18 -15 40 -7 29 11 33 22
17 52 -12 21 -15 22 -47 9z"/>
</g>
</svg>
